<svg xmlns="http://www.w3.org/2000/svg" width="127" height="109" viewBox="0 0 127 109">
  <g id="Group_36" data-name="Group 36" transform="translate(-124 -248)">
    <g id="Polygon_1" data-name="Polygon 1" transform="translate(124 248)" fill="#ff555d">
      <path d="M 118.3005676269531 108.5000076293945 L 8.699430465698242 108.5000076293945 C 7.068938255310059 108.5000076293945 5.610430717468262 107.6560363769531 4.797938346862793 106.2423934936523 C 3.985446214675903 104.8287353515625 3.990384578704834 103.1436538696289 4.81113862991333 101.7348098754883 L 59.61169052124023 7.66770076751709 C 60.42692184448242 6.268331527709961 61.8804931640625 5.432900905609131 63.5 5.432900905609131 C 65.1195068359375 5.432900905609131 66.57307434082031 6.268331527709961 67.38829040527344 7.66770076751709 L 122.1888580322266 101.7348098754883 C 123.0096130371094 103.1436538696289 123.0145568847656 104.8287353515625 122.2020645141602 106.2423934936523 C 121.3895721435547 107.6560363769531 119.9310607910156 108.5000076293945 118.3005676269531 108.5000076293945 Z" stroke="none"/>
      <path d="M 63.5 5.932876586914062 C 62.06043243408203 5.932876586914062 60.76836395263672 6.675491333007812 60.04373168945312 7.919380187988281 L 5.2431640625 101.9864959716797 C 4.513603210449219 103.2388076782227 4.50921630859375 104.7366409301758 5.231430053710938 105.9932250976562 C 5.953651428222656 107.2497940063477 7.250099182128906 107.9999923706055 8.699432373046875 107.9999923706055 L 118.3005523681641 107.9999923706055 C 119.7499008178711 107.9999923706055 121.0463485717773 107.2497940063477 121.7685699462891 105.9932250976562 C 122.4907836914062 104.7366409301758 122.4863967895508 103.2388076782227 121.7568359375 101.9864959716797 L 66.95626831054688 7.919380187988281 C 66.23161315917969 6.675491333007812 64.93954467773438 5.932876586914062 63.5 5.932876586914062 M 63.5 4.932884216308594 C 65.17797088623047 4.932884216308594 66.85594177246094 5.760581970214844 67.82032775878906 7.415992736816406 L 122.6209030151367 101.4831085205078 C 124.5627670288086 104.8163909912109 122.1582489013672 108.9999923706055 118.3005523681641 108.9999923706055 L 8.699432373046875 108.9999923706055 C 4.841751098632812 108.9999923706055 2.437232971191406 104.8163909912109 4.379096984863281 101.4831085205078 L 59.17966461181641 7.415992736816406 C 60.14405822753906 5.760581970214844 61.82202911376953 4.932884216308594 63.5 4.932884216308594 Z" stroke="none" fill="#ff555d"/>
    </g>
    <text id="_" data-name="!" transform="translate(179 335)" fill="#243441" stroke="rgba(0,0,0,0)" stroke-width="1" font-size="61" font-family="Alata-Regular, Alata"><tspan x="0" y="0">!</tspan></text>
  </g>
</svg>
